<svg id="Capa_1" enable-background="new 0 0 510 510" height="512" viewBox="0 0 510 510" width="512" xmlns="http://www.w3.org/2000/svg"><g><path d="m461.303 344.973-221.975-23.783c-4.819-46.085-36.034-85.567-80.736-100.469l-7.123-2.374 9.384-82.092 75.078 10.62c23.3 3.298 42.398 19.213 49.838 41.536l28.461-9.486c-11.063-33.189-39.455-56.851-74.096-61.754l-142.411-20.146-39.64-70.693-26.167 14.672 40.901 72.944-22.15 193.794c-29.443 10.13-50.667 38.087-50.667 70.926 0 41.355 33.645 75 75 75v30h30v-30h300v30h30v-30h20.497c30.053 0 54.503-24.45 54.503-54.504 0-27.921-20.935-51.218-48.697-54.191zm-312.198-95.791c31.336 10.445 53.81 37.041 59.48 68.713l-67.666-7.25 7.069-61.836zm-67.843 55.07 20.162-176.403 29.714 4.205-20.051 175.395zm374.235 119.416h-380.497c-24.813 0-45-20.186-45-45 0-21.508 15.167-39.539 35.367-43.961l57.505 4.176 335.235 35.919c12.481 1.337 21.893 11.81 21.893 24.362 0 13.512-10.992 24.504-24.503 24.504z"/><path d="m75 363.668h30v30h-30z"/></g></svg>